<?xml version="1.0" standalone="no"?>
<!DOCTYPE svg PUBLIC "-//W3C//DTD SVG 20010904//EN"
 "http://www.w3.org/TR/2001/REC-SVG-20010904/DTD/svg10.dtd">
<svg version="1.0" xmlns="http://www.w3.org/2000/svg"
 width="500.000000pt" height="500.000000pt" viewBox="0 0 500.000000 500.000000"
 preserveAspectRatio="xMidYMid meet">
<metadata>
Created by potrace 1.11, written by Peter Selinger 2001-2013
</metadata>
<g transform="translate(0.000000,500.000000) scale(0.100000,-0.100000)"
fill="#000000" stroke="none">
<path d="M1488 4599 c-42 -4 -144 -20 -225 -34 -422 -73 -696 -157 -795 -244
-151 -132 -194 -537 -122 -1151 22 -190 120 -857 150 -1019 99 -539 248 -919
399 -1019 64 -42 151 -56 294 -48 391 22 450 108 362 532 -16 77 -35 177 -41
222 -14 105 -15 274 -1 300 14 26 40 34 251 77 527 107 822 233 1041 442 190
181 282 385 296 653 10 190 -25 400 -93 562 -96 229 -293 438 -530 560 -276
143 -638 204 -986 167z m349 -407 c84 -126 115 -235 115 -407 0 -94 -5 -140
-24 -211 l-23 -90 80 37 c115 54 184 70 325 76 134 6 240 -8 240 -31 0 -26
-33 -92 -77 -154 -100 -140 -308 -268 -496 -304 -37 -7 -67 -17 -67 -21 0 -5
13 -26 29 -46 42 -54 87 -138 112 -211 24 -73 32 -231 12 -251 -14 -14 -92 10
-186 59 -75 39 -196 145 -253 224 l-37 50 -23 -43 c-12 -24 -44 -75 -71 -114
-37 -54 -54 -71 -76 -73 -39 -5 -36 28 7 81 18 23 47 67 64 97 l31 55 -85 -41
c-46 -23 -115 -49 -151 -58 -84 -21 -214 -30 -273 -19 -42 8 -45 11 -43 38 7
92 144 262 269 335 l60 34 -71 47 c-39 27 -107 86 -152 132 -132 138 -201 278
-211 430 -5 91 -10 88 113 57 148 -38 279 -115 396 -232 l69 -69 0 39 c0 146
75 348 177 476 39 49 164 155 183 156 3 0 19 -21 37 -48z"/>
<path d="M2900 2323 c-24 -9 -40 -35 -40 -65 0 -15 -9 -37 -20 -48 -18 -18
-34 -20 -162 -21 -253 -1 -247 6 -258 -325 -7 -193 -13 -266 -28 -324 -33
-130 -34 -139 -11 -187 11 -24 41 -64 65 -89 58 -59 80 -57 112 10 24 50 41
50 42 -1 0 -57 121 -67 375 -33 81 11 185 20 232 20 l84 0 20 -35 c25 -41 37
-43 104 -11 55 25 105 76 105 107 0 57 -118 318 -165 365 -30 30 -72 31 -124
4 -76 -38 -86 -65 -51 -141 26 -58 25 -75 -4 -94 -33 -22 -126 -31 -156 -15
-30 16 -24 48 35 184 94 216 106 282 59 313 -15 9 -53 19 -86 21 -52 4 -62 2
-85 -19 -35 -33 -72 -111 -128 -269 -53 -150 -77 -204 -108 -237 -24 -27 -75
-31 -84 -7 -3 9 0 73 7 143 7 69 12 169 12 221 -2 116 10 164 45 188 24 15 67
18 408 22 405 5 419 7 431 55 9 34 -25 97 -61 114 -20 10 -81 17 -179 21 -147
6 -149 6 -172 34 -13 15 -24 38 -24 50 0 13 -6 28 -12 34 -15 11 -156 24 -178
15z"/>
<path d="M3992 2318 c-6 -6 -12 -20 -12 -30 0 -27 -32 -38 -122 -44 -123 -8
-147 -18 -169 -68 -10 -24 -23 -83 -29 -132 -13 -115 -13 -361 1 -444 14 -88
30 -103 119 -108 58 -4 73 -8 85 -25 17 -24 19 -46 6 -66 -11 -17 -51 -5 -51
15 0 8 -9 23 -20 34 -27 27 -153 29 -189 4 -22 -16 -23 -22 -19 -88 8 -125 41
-157 164 -160 53 -1 67 2 75 17 9 15 31 17 242 17 l231 0 22 -27 c22 -28 23
-28 126 -25 118 3 161 19 195 70 27 41 51 143 59 256 l7 85 -29 11 c-19 8
-141 10 -376 8 -250 -2 -350 0 -358 8 -9 9 -9 14 1 20 7 4 157 8 333 9 321 1
399 8 441 39 13 9 16 20 12 38 -13 50 -34 53 -425 58 -444 6 -494 22 -97 31
149 4 286 10 307 14 43 8 75 36 84 71 11 44 -2 226 -19 267 -22 51 -56 63
-200 71 -137 8 -161 15 -179 53 -13 27 -15 28 -108 31 -66 2 -99 -1 -108 -10z
m366 -211 c32 -21 -13 -27 -216 -27 -196 0 -276 9 -232 24 46 16 424 18 448 3z
m3 -144 c20 -20 -23 -24 -245 -21 -149 2 -210 6 -213 15 -6 18 29 21 244 19
142 -1 206 -5 214 -13z m89 -493 c40 -40 17 -110 -35 -110 -28 0 -37 12 -45
60 l-5 35 -84 3 c-88 3 -108 -4 -113 -41 -2 -16 -10 -22 -28 -22 -21 0 -26 5
-28 32 -5 51 27 62 186 63 119 0 134 -2 152 -20z"/>
<path d="M4595 1023 c-11 -2 -36 -22 -55 -44 -46 -51 -93 -59 -304 -52 -205 6
-236 -6 -236 -90 0 -62 12 -65 231 -69 210 -3 229 -8 229 -55 0 -50 -68 -153
-130 -194 -21 -14 -84 -39 -139 -54 -55 -15 -107 -35 -116 -45 -15 -16 -14
-21 1 -59 9 -23 25 -46 35 -51 56 -31 218 14 335 92 107 72 180 175 219 311
11 38 25 63 42 75 76 51 88 83 56 149 -26 56 -110 99 -168 86z m75 -93 c24
-24 25 -43 4 -64 -19 -20 -24 -20 -52 0 -26 18 -29 59 -4 73 24 15 29 14 52
-9z"/>
<path d="M718 994 c-55 -29 -74 -109 -41 -165 10 -16 37 -39 60 -50 53 -26
110 -19 153 18 108 90 -46 266 -172 197z m112 -84 c21 -39 -9 -78 -51 -65 -22
7 -33 37 -24 65 9 28 60 27 75 0z"/>
<path d="M1984 962 c-9 -10 -26 -45 -39 -76 -13 -31 -51 -97 -84 -147 -34 -50
-61 -96 -61 -104 0 -23 48 -53 105 -66 71 -16 97 0 136 87 43 95 55 104 140
104 112 0 129 -20 88 -110 -43 -95 -106 -138 -257 -176 -53 -13 -102 -30 -111
-38 -19 -19 -20 -76 -2 -110 23 -43 59 -50 152 -31 211 42 343 136 400 282 16
44 23 87 27 173 6 155 8 153 -171 158 -168 4 -175 5 -179 40 -3 26 -6 27 -65
30 -51 2 -65 0 -79 -16z"/>
<path d="M2657 930 c-58 -10 -83 -31 -93 -73 -5 -25 -2 -34 16 -49 20 -16 44
-18 204 -18 182 0 256 -10 256 -34 0 -19 -92 -102 -135 -123 l-35 -17 -38 37
c-43 42 -58 45 -112 17 -73 -37 -67 -72 33 -207 89 -119 132 -163 159 -163 27
0 107 50 113 72 3 9 -3 31 -15 50 -11 18 -20 36 -20 40 0 4 43 44 95 89 54 47
113 108 135 142 34 51 40 67 40 113 0 68 -15 100 -54 115 -37 15 -476 22 -549
9z"/>
<path d="M372 902 c-10 -10 -25 -54 -35 -102 -10 -47 -41 -156 -69 -242 l-52
-157 22 -24 c32 -34 95 -61 126 -53 36 9 81 109 123 275 43 171 53 280 29 304
-24 24 -119 24 -144 -1z"/>
<path d="M3570 807 c-35 -12 -35 -13 -34 -69 1 -38 9 -73 25 -105 22 -43 28
-48 62 -51 43 -4 87 19 87 45 0 30 -42 158 -58 176 -18 20 -33 21 -82 4z"/>
<path d="M3785 800 c-3 -5 -12 -50 -19 -99 -23 -155 -80 -222 -216 -255 -41
-10 -81 -22 -87 -28 -19 -15 -16 -48 7 -85 23 -39 54 -42 141 -17 130 39 221
109 271 211 27 55 33 80 36 153 4 85 4 87 -23 108 -29 23 -99 30 -110 12z"/>
<path d="M3395 780 c-38 -15 -48 -36 -40 -87 8 -56 31 -114 48 -125 18 -11 63
-10 92 4 28 13 33 52 14 123 -21 84 -29 95 -63 94 -17 0 -40 -4 -51 -9z"/>
<path d="M753 710 c-23 -14 -33 -27 -33 -45 0 -37 49 -262 67 -307 14 -36 17
-38 60 -38 56 0 101 23 109 56 14 57 -27 258 -67 322 -16 28 -24 32 -61 32
-25 0 -57 -8 -75 -20z"/>
<path d="M1066 696 c-47 -17 -57 -31 -54 -71 2 -21 12 -34 38 -50 33 -19 51
-20 325 -20 275 0 292 1 325 21 29 17 35 26 35 53 0 25 -7 39 -28 55 -27 20
-41 21 -315 23 -227 2 -295 0 -326 -11z"/>
</g>
</svg>
